<?xml version="1.0" standalone="no"?>
<!DOCTYPE svg PUBLIC "-//W3C//DTD SVG 20010904//EN"
 "http://www.w3.org/TR/2001/REC-SVG-20010904/DTD/svg10.dtd">
<svg version="1.0" xmlns="http://www.w3.org/2000/svg"
 width="1024.000000pt" height="1024.000000pt" viewBox="0 0 1024.000000 1024.000000"
 preserveAspectRatio="xMidYMid meet">

<g transform="translate(0.000000,1024.000000) scale(0.100000,-0.100000)"
fill="#000000" stroke="none">
<path d="M4626 7600 c-309 -39 -595 -181 -797 -399 -225 -241 -349 -574 -349
-942 l0 -106 -127 -6 c-71 -3 -162 -13 -203 -22 -384 -84 -697 -333 -811 -646
-45 -123 -61 -217 -60 -359 1 -200 46 -367 143 -526 45 -74 127 -176 140 -172
5 2 162 260 349 573 187 314 453 760 591 993 l253 422 320 0 320 0 -3 -602
c-1 -359 1 -598 7 -593 8 10 358 592 601 1003 l114 192 268 0 268 0 -2 -667
-3 -668 -195 -87 c-107 -48 -232 -102 -278 -121 l-83 -35 3 269 c2 148 1 269
-2 269 -3 0 -61 -100 -130 -223 -265 -473 -265 -473 -318 -492 -246 -87 -748
-251 -824 -269 l-28 -6 -2 510 -3 511 -288 -488 c-432 -732 -396 -676 -438
-685 -132 -27 -440 -52 -644 -52 -194 0 -230 2 -302 21 -145 39 -233 96 -274
179 -18 39 -21 58 -17 132 4 72 10 101 41 172 35 82 46 133 29 144 -14 8 -53
-21 -128 -95 -55 -53 -86 -95 -112 -148 -35 -71 -37 -80 -37 -176 0 -96 2
-104 30 -151 140 -226 659 -294 1370 -179 646 104 1271 290 2085 620 669 271
1119 497 1580 794 419 270 750 544 994 825 145 166 206 249 251 341 63 127 78
227 50 322 -30 100 -103 171 -224 218 -60 23 -81 25 -167 23 l-99 -3 71 -47
c100 -67 208 -182 222 -238 20 -80 -14 -176 -121 -343 l-50 -78 -35 52 c-77
115 -228 242 -371 314 -366 184 -785 158 -1124 -70 l-50 -34 -61 105 c-34 57
-81 132 -106 167 -67 92 -244 265 -335 325 -161 107 -355 188 -521 217 -106
18 -292 26 -378 15z m2194 -1200 c109 -13 226 -36 315 -61 85 -25 265 -92 265
-99 0 -7 -328 -295 -412 -362 -52 -41 -62 -46 -86 -38 -51 18 -199 39 -315 46
l-117 7 -2 -189 -3 -189 -170 -99 c-154 -89 -383 -216 -392 -216 -2 0 -3 272
-3 605 l0 605 418 0 c230 0 456 -5 502 -10z"/>
<path d="M8199 7020 c45 -61 58 -95 67 -186 7 -71 -14 -192 -52 -293 -161
-428 -869 -1044 -1784 -1553 -557 -310 -1314 -642 -1952 -858 l-128 -43 -36
-76 c-20 -42 -41 -80 -47 -84 -7 -4 -120 -7 -252 -6 l-240 2 -185 -46 c-170
-41 -332 -75 -470 -96 -31 -5 1014 -9 2428 -10 l2483 -1 -3 23 c-3 21 -7 22
-128 25 -137 3 -160 12 -160 62 0 51 23 60 162 60 l126 0 26 54 c31 63 89 119
155 149 35 16 66 22 126 22 69 0 89 -4 135 -28 l54 -28 38 43 c57 64 117 149
153 215 l33 58 -277 -3 c-270 -3 -277 -3 -304 18 -34 27 -37 72 -5 94 19 14
68 16 330 16 l307 0 20 64 c18 60 33 151 45 277 l6 55 -45 32 c-28 19 -54 49
-67 77 l-22 45 -217 0 c-120 0 -229 4 -243 10 -48 18 -61 98 -19 115 10 4 118
7 241 6 l224 -2 34 38 c19 20 34 41 34 45 0 18 -71 183 -104 242 -19 34 -55
90 -80 124 l-46 62 -178 0 c-144 0 -182 3 -200 16 -25 17 -29 51 -8 80 12 16
31 20 132 24 l118 5 -44 38 c-25 21 -71 56 -104 78 l-58 39 -40 -63 c-46 -70
-86 -122 -171 -219 l-58 -67 20 -68 c46 -158 56 -231 55 -418 -1 -145 -5 -200
-23 -283 -53 -251 -153 -435 -328 -603 -190 -183 -410 -291 -716 -351 -91 -18
-154 -20 -579 -25 l-478 -5 0 277 c0 260 -1 277 -17 270 -10 -4 -66 -25 -125
-47 l-108 -41 0 -229 0 -228 -280 0 -280 0 2 166 3 166 65 25 c976 377 1462
608 1975 941 411 267 790 585 978 822 180 226 278 465 262 640 -12 140 -63
246 -166 345 l-51 50 41 -55z"/>
<path d="M7385 5201 c-6 -11 -181 -121 -320 -201 -98 -57 -445 -232 -537 -271
l-58 -24 0 -94 0 -93 203 5 c162 3 217 8 278 25 109 29 188 72 264 144 53 49
75 79 110 152 48 100 63 160 74 284 6 75 2 98 -14 73z"/>
<path d="M8275 4027 c-76 -30 -110 -72 -120 -147 -4 -34 -3 -40 4 -23 6 12 35
36 65 53 30 17 74 49 99 70 25 22 51 40 59 40 10 0 9 3 -2 10 -20 13 -68 11
-105 -3z"/>
</g>
</svg>
